<svg width="20" height="14" viewBox="0 0 20 14" fill="none" xmlns="http://www.w3.org/2000/svg">
<path d="M19.5576 2.18694C19.4439 1.76346 19.221 1.37727 18.9111 1.06702C18.6013 0.756774 18.2154 0.533349 17.792 0.419108C16.2338 8.5041e-08 9.98726 0 9.98726 0C9.98726 0 3.74076 -8.5041e-08 2.18248 0.416879C1.75896 0.530749 1.37286 0.75405 1.06294 1.06436C0.753028 1.37466 0.530215 1.76105 0.416879 2.18471C-8.5041e-08 3.74522 0 7 0 7C0 7 -8.5041e-08 10.2548 0.416879 11.8131C0.646497 12.6736 1.3242 13.3513 2.18248 13.5809C3.74076 14 9.98726 14 9.98726 14C9.98726 14 16.2338 14 17.792 13.5809C18.6525 13.3513 19.328 12.6736 19.5576 11.8131C19.9745 10.2548 19.9745 7 19.9745 7C19.9745 7 19.9745 3.74522 19.5576 2.18694ZM8.00319 9.98726V4.01274L13.1752 6.97771L8.00319 9.98726Z" fill="#888888"/>
</svg>
