<svg width="99" height="35" viewBox="0 0 99 35" fill="none" xmlns="http://www.w3.org/2000/svg">
<path d="M10.9204 34.9852C7.97065 34.869 5.55728 34.0683 3.67022 32.5812C3.31008 32.2971 2.45191 31.4453 2.16401 31.086C1.39878 30.1315 0.878523 29.2025 0.531518 28.1719C-0.536266 24.9992 0.013284 20.8359 2.10339 16.2668C3.89297 12.355 6.65436 8.47538 11.472 3.10206C12.1817 2.31139 14.295 -0.000976562 14.3087 -0.000976562C14.3137 -0.000976562 14.1985 0.196939 14.0536 0.437949C12.8009 2.51933 11.7291 4.97099 11.1452 7.09347C10.2072 10.4991 10.3204 13.4218 11.4766 15.6881C12.2741 17.2494 13.6414 18.6017 15.179 19.3493C17.8706 20.6575 21.8114 20.7658 26.624 19.6659C26.9554 19.5898 43.3742 15.2662 63.1105 10.0577C82.8469 4.84873 98.9975 0.590268 99 0.593774C99.0055 0.598292 53.1469 20.0643 29.341 30.1631C25.5709 31.7619 24.5627 32.1658 22.7903 32.7831C18.2596 34.3614 14.2011 35.1145 10.9204 34.9852Z" fill="white"/>
</svg>
