<svg width="16" height="19" viewBox="0 0 16 19" fill="none" xmlns="http://www.w3.org/2000/svg">
<path d="M8.00002 0.200012C5.34534 0.200012 3.20002 2.34532 3.20002 5.00001V7.00001H1.60002C0.942212 7.00001 0.400024 7.5422 0.400024 8.20001V17.8C0.400024 18.4578 0.942212 19 1.60002 19H14.4C15.0578 19 15.6 18.4578 15.6 17.8V8.20001C15.6 7.5422 15.0578 7.00001 14.4 7.00001H12.8V5.00001C12.8 2.34532 10.6547 0.200012 8.00002 0.200012ZM8.00002 1.00001C10.2266 1.00001 12 2.77345 12 5.00001V7.00001H4.00002V5.00001C4.00002 2.77345 5.77346 1.00001 8.00002 1.00001ZM1.60002 7.80001H14.4C14.6219 7.80001 14.8 7.97814 14.8 8.20001V17.8C14.8 18.0219 14.6219 18.2 14.4 18.2H1.60002C1.37815 18.2 1.20002 18.0219 1.20002 17.8V8.20001C1.20002 7.97814 1.37815 7.80001 1.60002 7.80001ZM8.00002 11C7.32034 11 6.80002 11.5203 6.80002 12.2C6.80002 12.5594 6.9594 12.875 7.20002 13.075V14.2C7.20002 14.6406 7.5594 15 8.00002 15C8.44065 15 8.80002 14.6406 8.80002 14.2V13.075C9.04065 12.875 9.20002 12.5594 9.20002 12.2C9.20002 11.5203 8.67971 11 8.00002 11Z" fill="black"/>
</svg>
