<svg width="111" height="37" viewBox="0 0 111 37" fill="none" xmlns="http://www.w3.org/2000/svg">
<path d="M1.10227 36V31.4318L13.2216 19.5511C14.3807 18.3807 15.3466 17.3409 16.1193 16.4318C16.892 15.5227 17.4716 14.642 17.858 13.7898C18.2443 12.9375 18.4375 12.0284 18.4375 11.0625C18.4375 9.96023 18.1875 9.01704 17.6875 8.23295C17.1875 7.4375 16.5 6.82386 15.625 6.39205C14.75 5.96023 13.7557 5.74432 12.642 5.74432C11.4943 5.74432 10.4886 5.98295 9.625 6.46023C8.76136 6.92614 8.09091 7.59091 7.61364 8.45455C7.14773 9.31818 6.91477 10.3466 6.91477 11.5398H0.897727C0.897727 9.32386 1.40341 7.39773 2.41477 5.76136C3.42614 4.125 4.81818 2.85795 6.59091 1.96023C8.375 1.0625 10.4205 0.613635 12.7273 0.613635C15.0682 0.613635 17.125 1.05114 18.8977 1.92614C20.6705 2.80114 22.0455 4 23.0227 5.52273C24.0114 7.04545 24.5057 8.78409 24.5057 10.7386C24.5057 12.0455 24.2557 13.3295 23.7557 14.5909C23.2557 15.8523 22.375 17.25 21.1136 18.7841C19.8636 20.3182 18.108 22.1761 15.8466 24.358L9.82955 30.4773V30.7159H25.0341V36H1.10227ZM41.8982 36.6648C39.0914 36.6648 36.6823 35.9545 34.6709 34.5341C32.6709 33.1023 31.1311 31.0398 30.0516 28.3466C28.9834 25.642 28.4493 22.3864 28.4493 18.5795C28.4607 14.7727 29.0005 11.5341 30.0686 8.86364C31.1482 6.18182 32.688 4.13636 34.688 2.72727C36.6993 1.31818 39.1027 0.613635 41.8982 0.613635C44.6936 0.613635 47.097 1.31818 49.1084 2.72727C51.1198 4.13636 52.6595 6.18182 53.7277 8.86364C54.8073 11.5455 55.347 14.7841 55.347 18.5795C55.347 22.3977 54.8073 25.6591 53.7277 28.3636C52.6595 31.0568 51.1198 33.1136 49.1084 34.5341C47.1084 35.9545 44.705 36.6648 41.8982 36.6648ZM41.8982 31.3295C44.08 31.3295 45.8016 30.2557 47.063 28.108C48.3357 25.9489 48.972 22.7727 48.972 18.5795C48.972 15.8068 48.6823 13.4773 48.1027 11.5909C47.5232 9.70454 46.705 8.28409 45.6482 7.32955C44.5914 6.36364 43.3414 5.88068 41.8982 5.88068C39.7277 5.88068 38.0118 6.96023 36.7505 9.11932C35.4891 11.267 34.8527 14.4205 34.8414 18.5795C34.83 21.3636 35.1084 23.7045 35.6766 25.6023C36.2561 27.5 37.0743 28.9318 38.1311 29.8977C39.188 30.8523 40.4436 31.3295 41.8982 31.3295ZM59.0904 36V31.4318L71.2097 19.5511C72.3688 18.3807 73.3347 17.3409 74.1074 16.4318C74.8802 15.5227 75.4597 14.642 75.8461 13.7898C76.2324 12.9375 76.4256 12.0284 76.4256 11.0625C76.4256 9.96023 76.1756 9.01704 75.6756 8.23295C75.1756 7.4375 74.4881 6.82386 73.6131 6.39205C72.7381 5.96023 71.7438 5.74432 70.6302 5.74432C69.4824 5.74432 68.4768 5.98295 67.6131 6.46023C66.7495 6.92614 66.079 7.59091 65.6018 8.45455C65.1359 9.31818 64.9029 10.3466 64.9029 11.5398H58.8859C58.8859 9.32386 59.3915 7.39773 60.4029 5.76136C61.4143 4.125 62.8063 2.85795 64.579 1.96023C66.3631 1.0625 68.4086 0.613635 70.7154 0.613635C73.0563 0.613635 75.1131 1.05114 76.8859 1.92614C78.6586 2.80114 80.0336 4 81.0109 5.52273C81.9995 7.04545 82.4938 8.78409 82.4938 10.7386C82.4938 12.0455 82.2438 13.3295 81.7438 14.5909C81.2438 15.8523 80.3631 17.25 79.1018 18.7841C77.8518 20.3182 76.0961 22.1761 73.8347 24.358L67.8177 30.4773V30.7159H83.0222V36H59.0904ZM86.9829 36V31.4318L99.1022 19.5511C100.261 18.3807 101.227 17.3409 102 16.4318C102.773 15.5227 103.352 14.642 103.739 13.7898C104.125 12.9375 104.318 12.0284 104.318 11.0625C104.318 9.96023 104.068 9.01704 103.568 8.23295C103.068 7.4375 102.381 6.82386 101.506 6.39205C100.631 5.96023 99.6363 5.74432 98.5227 5.74432C97.3749 5.74432 96.3693 5.98295 95.5056 6.46023C94.642 6.92614 93.9715 7.59091 93.4943 8.45455C93.0284 9.31818 92.7954 10.3466 92.7954 11.5398H86.7784C86.7784 9.32386 87.284 7.39773 88.2954 5.76136C89.3068 4.125 90.6988 2.85795 92.4715 1.96023C94.2556 1.0625 96.3011 0.613635 98.6079 0.613635C100.949 0.613635 103.006 1.05114 104.778 1.92614C106.551 2.80114 107.926 4 108.903 5.52273C109.892 7.04545 110.386 8.78409 110.386 10.7386C110.386 12.0455 110.136 13.3295 109.636 14.5909C109.136 15.8523 108.256 17.25 106.994 18.7841C105.744 20.3182 103.989 22.1761 101.727 24.358L95.7102 30.4773V30.7159H110.915V36H86.9829Z" fill="#888888"/>
</svg>
