<svg width="14" height="14" viewBox="0 0 14 14" fill="none" xmlns="http://www.w3.org/2000/svg">
<path fill-rule="evenodd" clip-rule="evenodd" d="M1.73129e-07 1.16964C1.73129e-07 0.859431 0.123229 0.561929 0.342579 0.34258C0.561928 0.123231 0.85943 1.55929e-06 1.16964 1.55929e-06H12.8291C12.9828 -0.000249519 13.1351 0.0298234 13.2772 0.0884985C13.4193 0.147174 13.5484 0.233299 13.6572 0.341943C13.7659 0.450587 13.8522 0.579616 13.911 0.721644C13.9698 0.863672 14.0001 1.01591 14 1.16964V12.8291C14.0002 12.9829 13.97 13.1351 13.9113 13.2772C13.8525 13.4193 13.7663 13.5484 13.6576 13.6572C13.549 13.766 13.4199 13.8522 13.2778 13.911C13.1358 13.9698 12.9835 14.0001 12.8297 14H1.16964C1.01598 14 0.863837 13.9697 0.721889 13.9109C0.579941 13.8521 0.450973 13.7659 0.342354 13.6572C0.233735 13.5485 0.147593 13.4195 0.0888507 13.2775C0.0301084 13.1355 -8.34245e-05 12.9834 1.73129e-07 12.8297V1.16964ZM5.54145 5.33782H7.43718V6.28982C7.71082 5.74255 8.41082 5.25 9.46273 5.25C11.4794 5.25 11.9573 6.34009 11.9573 8.34018V12.0451H9.91645V8.79582C9.91645 7.65673 9.64282 7.014 8.94791 7.014C7.98382 7.014 7.58291 7.707 7.58291 8.79582V12.0451H5.54145V5.33782ZM2.04145 11.9579H4.08291V5.25H2.04145V11.9573V11.9579ZM4.375 3.06218C4.37885 3.23697 4.34775 3.41077 4.28352 3.57338C4.21929 3.73599 4.12322 3.88413 4.00097 4.00911C3.87871 4.13409 3.73272 4.23339 3.57156 4.30119C3.41041 4.36898 3.23733 4.4039 3.0625 4.4039C2.88767 4.4039 2.71459 4.36898 2.55344 4.30119C2.39228 4.23339 2.24629 4.13409 2.12403 4.00911C2.00178 3.88413 1.90571 3.73599 1.84148 3.57338C1.77725 3.41077 1.74615 3.23697 1.75 3.06218C1.75756 2.71909 1.89915 2.3926 2.14447 2.15262C2.38979 1.91264 2.71932 1.77827 3.0625 1.77827C3.40568 1.77827 3.73521 1.91264 3.98053 2.15262C4.22585 2.3926 4.36744 2.71909 4.375 3.06218Z" fill="#888888"/>
</svg>
