<svg width="158" height="158" viewBox="0 0 158 158" fill="none" xmlns="http://www.w3.org/2000/svg">
<path d="M119.734 78.0177C125.353 69.9714 128.655 60.1922 128.655 49.6549C128.655 22.2751 106.38 0 79.0002 0C51.6207 0 29.3453 22.2751 29.3453 49.6546C29.3453 60.1918 32.6472 69.971 38.2669 78.0173L12.04 141.335L38.8223 133.574L52.2726 158L76.6074 99.2513C77.4003 99.2891 78.1979 99.3099 79.0002 99.3099C79.8025 99.3099 80.5998 99.2891 81.393 99.2513L105.728 158L119.178 133.574L145.96 141.335L119.734 78.0177ZM50.9899 134.837L43.7472 121.684L29.3259 125.863L45.6623 86.4234C51.482 91.7048 58.5569 95.6254 66.3794 97.6825L50.9899 134.837ZM39.3948 49.6546C39.3948 27.8164 57.1616 10.0495 79.0002 10.0495C100.839 10.0495 118.606 27.8164 118.606 49.6546C118.606 71.4932 100.839 89.26 79.0002 89.26C57.1616 89.26 39.3948 71.4935 39.3948 49.6546ZM114.253 121.684L107.01 134.837L91.6204 97.6829C99.4429 95.6257 106.518 91.7051 112.337 86.4237L128.674 125.863L114.253 121.684Z" fill="#A97142"/>
<path d="M80.9773 73.6364C77.5833 73.6364 74.5606 73.053 71.9091 71.8864C69.2727 70.7045 67.1894 69.0833 65.6591 67.0227C64.1439 64.947 63.3636 62.553 63.3182 59.8409H73.2273C73.2879 60.9773 73.6591 61.9773 74.3409 62.8409C75.0379 63.6894 75.9621 64.3485 77.1136 64.8182C78.2652 65.2879 79.5606 65.5227 81 65.5227C82.5 65.5227 83.8258 65.2576 84.9773 64.7273C86.1288 64.197 87.0303 63.4621 87.6818 62.5227C88.3333 61.5833 88.6591 60.5 88.6591 59.2727C88.6591 58.0303 88.3106 56.9318 87.6136 55.9773C86.9318 55.0076 85.947 54.25 84.6591 53.7045C83.3864 53.1591 81.8712 52.8864 80.1136 52.8864H75.7727V45.6591H80.1136C81.5985 45.6591 82.9091 45.4015 84.0455 44.8864C85.197 44.3712 86.0909 43.6591 86.7273 42.75C87.3636 41.8258 87.6818 40.75 87.6818 39.5227C87.6818 38.3561 87.4015 37.3333 86.8409 36.4545C86.2955 35.5606 85.5227 34.8636 84.5227 34.3636C83.5379 33.8636 82.3864 33.6136 81.0682 33.6136C79.7348 33.6136 78.5152 33.8561 77.4091 34.3409C76.303 34.8106 75.4167 35.4848 74.75 36.3636C74.0833 37.2424 73.7273 38.2727 73.6818 39.4545H64.25C64.2955 36.7727 65.0606 34.4091 66.5455 32.3636C68.0303 30.3182 70.0303 28.7197 72.5455 27.5682C75.0758 26.4015 77.9318 25.8182 81.1136 25.8182C84.3258 25.8182 87.1364 26.4015 89.5455 27.5682C91.9545 28.7348 93.8258 30.3106 95.1591 32.2955C96.5076 34.2652 97.1742 36.4773 97.1591 38.9318C97.1742 41.5379 96.3636 43.7121 94.7273 45.4545C93.1061 47.197 90.9924 48.303 88.3864 48.7727V49.1364C91.8106 49.5758 94.4167 50.7652 96.2045 52.7045C98.0076 54.6288 98.9015 57.0379 98.8864 59.9318C98.9015 62.5833 98.1364 64.9394 96.5909 67C95.0606 69.0606 92.947 70.6818 90.25 71.8636C87.553 73.0455 84.4621 73.6364 80.9773 73.6364Z" fill="#A97142"/>
</svg>
