<svg width="158" height="158" viewBox="0 0 158 158" fill="none" xmlns="http://www.w3.org/2000/svg">
<path d="M119.734 78.0177C125.353 69.9714 128.655 60.1922 128.655 49.6549C128.655 22.2751 106.38 0 79.0002 0C51.6207 0 29.3453 22.2751 29.3453 49.6546C29.3453 60.1918 32.6472 69.971 38.2669 78.0173L12.04 141.335L38.8223 133.574L52.2726 158L76.6074 99.2513C77.4003 99.2891 78.1979 99.3099 79.0002 99.3099C79.8025 99.3099 80.5998 99.2891 81.393 99.2513L105.728 158L119.178 133.574L145.96 141.335L119.734 78.0177ZM50.9899 134.837L43.7472 121.684L29.3259 125.863L45.6623 86.4234C51.482 91.7048 58.5569 95.6254 66.3794 97.6825L50.9899 134.837ZM39.3948 49.6546C39.3948 27.8164 57.1616 10.0495 79.0002 10.0495C100.839 10.0495 118.606 27.8164 118.606 49.6546C118.606 71.4932 100.839 89.26 79.0002 89.26C57.1616 89.26 39.3948 71.4935 39.3948 49.6546ZM114.253 121.684L107.01 134.837L91.6204 97.6829C99.4429 95.6257 106.518 91.7051 112.337 86.4237L128.674 125.863L114.253 121.684Z" fill="#D4AF37"/>
<path d="M84.0227 26.4545V73H74.1818V35.7955H73.9091L63.25 42.4773V33.75L74.7727 26.4545H84.0227Z" fill="#D4AF37"/>
</svg>
