<svg width="155" height="26" viewBox="0 0 155 26" fill="none" xmlns="http://www.w3.org/2000/svg">
<path d="M34.984 20.5509V1.1763H39.014V8.46069H39.137C39.3136 8.06967 39.569 7.67234 39.9033 7.2687C40.2439 6.85876 40.6854 6.51819 41.2277 6.24699C41.7764 5.96949 42.4576 5.83074 43.2712 5.83074C44.3307 5.83074 45.3083 6.10824 46.2038 6.66324C47.0994 7.21194 47.8152 8.04129 48.3513 9.15129C48.8874 10.255 49.1554 11.6393 49.1554 13.3043C49.1554 14.9252 48.8937 16.2938 48.3702 17.4101C47.8531 18.5201 47.1467 19.362 46.2511 19.936C45.3619 20.5036 44.3654 20.7874 43.2617 20.7874C42.4796 20.7874 41.8143 20.6581 41.2656 20.3995C40.7232 20.1409 40.2786 19.8161 39.9317 19.4251C39.5848 19.0278 39.3199 18.6273 39.137 18.2237H38.9573V20.5509H34.984ZM38.9289 13.2854C38.9289 14.1495 39.0487 14.9031 39.2884 15.5464C39.528 16.1897 39.8749 16.6911 40.329 17.0506C40.7831 17.4038 41.335 17.5804 41.9846 17.5804C42.6405 17.5804 43.1955 17.4006 43.6496 17.0411C44.1037 16.6753 44.4474 16.1708 44.6807 15.5275C44.9204 14.8779 45.0402 14.1305 45.0402 13.2854C45.0402 12.4466 44.9235 11.7087 44.6902 11.0717C44.4568 10.4347 44.1131 9.93649 43.659 9.577C43.2049 9.21751 42.6468 9.03776 41.9846 9.03776C41.3286 9.03776 40.7736 9.2112 40.3196 9.55808C39.8718 9.90495 39.528 10.3969 39.2884 11.0339C39.0487 11.6709 38.9289 12.4214 38.9289 13.2854Z" fill="white"/>
<path d="M54.3897 20.8252C53.4626 20.8252 52.6364 20.6644 51.9111 20.3428C51.1858 20.0148 50.6119 19.5323 50.1893 18.8953C49.7731 18.252 49.565 17.4511 49.565 16.4924C49.565 15.6852 49.7132 15.0072 50.0096 14.4585C50.306 13.9098 50.7097 13.4683 51.2205 13.1341C51.7314 12.7998 52.3116 12.5475 52.9612 12.3772C53.6171 12.2069 54.3045 12.0871 55.0235 12.0177C55.8686 11.9294 56.5498 11.8475 57.0669 11.7718C57.5841 11.6898 57.9594 11.57 58.1927 11.4123C58.4261 11.2546 58.5427 11.0213 58.5427 10.7122V10.6555C58.5427 10.0563 58.3535 9.59277 57.9751 9.26481C57.603 8.93686 57.0732 8.77288 56.3858 8.77288C55.6605 8.77288 55.0834 8.9337 54.6546 9.25535C54.2257 9.57069 53.9419 9.96802 53.8032 10.4473L50.0758 10.1446C50.265 9.26166 50.6371 8.49853 51.1921 7.85523C51.7471 7.20563 52.4629 6.70739 53.3396 6.36051C54.2226 6.00733 55.2443 5.83074 56.4047 5.83074C57.212 5.83074 57.9846 5.92534 58.7225 6.11455C59.4667 6.30375 60.1257 6.59702 60.6997 6.99435C61.2799 7.39168 61.7371 7.90254 62.0714 8.52691C62.4057 9.14498 62.5728 9.88603 62.5728 10.7501V20.5509H58.7509V18.5359H58.6373C58.404 18.9899 58.0918 19.3904 57.7008 19.7373C57.3097 20.0779 56.8399 20.3459 56.2912 20.5414C55.7425 20.7306 55.1087 20.8252 54.3897 20.8252ZM55.5438 18.0439C56.1367 18.0439 56.6601 17.9272 57.1142 17.6939C57.5683 17.4542 57.9247 17.1326 58.1832 16.7289C58.4418 16.3253 58.5711 15.8681 58.5711 15.3572V13.8152C58.445 13.8972 58.2715 13.9729 58.0508 14.0422C57.8364 14.1053 57.5936 14.1652 57.3224 14.222C57.0512 14.2724 56.78 14.3197 56.5088 14.3639C56.2376 14.4017 55.9916 14.4364 55.7709 14.4679C55.2979 14.5373 54.8848 14.6477 54.5316 14.7991C54.1784 14.9504 53.9041 15.1554 53.7085 15.414C53.513 15.6662 53.4153 15.9816 53.4153 16.36C53.4153 16.9087 53.6139 17.3281 54.0113 17.6182C54.4149 17.902 54.9258 18.0439 55.5438 18.0439Z" fill="white"/>
<path d="M76.1912 10.1635L72.5017 10.3906C72.4386 10.0752 72.303 9.79143 72.0949 9.53916C71.8868 9.28058 71.6124 9.0756 71.2719 8.92424C70.9376 8.76657 70.5371 8.68774 70.0704 8.68774C69.446 8.68774 68.9194 8.82018 68.4906 9.08507C68.0617 9.34365 67.8473 9.69052 67.8473 10.1257C67.8473 10.4726 67.986 10.7658 68.2635 11.0055C68.541 11.2452 69.0172 11.4375 69.692 11.5826L72.322 12.1123C73.7347 12.4025 74.7879 12.8692 75.4817 13.5125C76.1754 14.1558 76.5223 15.0009 76.5223 16.0478C76.5223 17.0001 76.2417 17.8358 75.6803 18.5548C75.1253 19.2738 74.3622 19.8351 73.391 20.2387C72.426 20.636 71.3129 20.8347 70.0515 20.8347C68.1279 20.8347 66.5954 20.4342 65.4538 19.6332C64.3186 18.826 63.6532 17.7286 63.4577 16.3411L67.4216 16.1329C67.5414 16.7195 67.8315 17.1673 68.2919 17.4763C68.7523 17.779 69.342 17.9304 70.061 17.9304C70.7673 17.9304 71.3349 17.7948 71.7638 17.5236C72.199 17.2461 72.4197 16.8898 72.426 16.4546C72.4197 16.0888 72.2652 15.7892 71.9625 15.5559C71.6597 15.3162 71.193 15.1333 70.5624 15.0072L68.0459 14.5058C66.6269 14.222 65.5705 13.73 64.8767 13.03C64.1893 12.3299 63.8456 11.4375 63.8456 10.3527C63.8456 9.41933 64.0979 8.61521 64.6024 7.94038C65.1133 7.26555 65.8291 6.74523 66.7499 6.37944C67.677 6.01364 68.7618 5.83074 70.0042 5.83074C71.8395 5.83074 73.2837 6.21861 74.337 6.99435C75.3965 7.77009 76.0146 8.82649 76.1912 10.1635Z" fill="white"/>
<path d="M81.4917 12.1502V20.5509H77.4616V1.1763H81.3782V8.58367H81.5484C81.8764 7.72594 82.4062 7.05427 83.1378 6.56864C83.8694 6.07671 84.787 5.83074 85.8907 5.83074C86.8998 5.83074 87.7796 6.05148 88.5301 6.49296C89.2869 6.92813 89.8735 7.55566 90.2897 8.37555C90.7123 9.18913 90.9204 10.1635 90.9141 11.2988V20.5509H86.884V12.0177C86.8903 11.1222 86.6633 10.4253 86.2029 9.92703C85.7488 9.42879 85.1118 9.17967 84.2919 9.17967C83.7432 9.17967 83.2576 9.29634 82.835 9.5297C82.4188 9.76305 82.0908 10.1036 81.8512 10.5514C81.6178 10.9929 81.498 11.5258 81.4917 12.1502Z" fill="white"/>
<path d="M96.6308 20.8252C95.7037 20.8252 94.8775 20.6644 94.1522 20.3428C93.4269 20.0148 92.853 19.5323 92.4305 18.8953C92.0142 18.252 91.8061 17.4511 91.8061 16.4924C91.8061 15.6852 91.9543 15.0072 92.2507 14.4585C92.5471 13.9098 92.9508 13.4683 93.4616 13.1341C93.9725 12.7998 94.5527 12.5475 95.2023 12.3772C95.8582 12.2069 96.5457 12.0871 97.2647 12.0177C98.1098 11.9294 98.7909 11.8475 99.3081 11.7718C99.8252 11.6898 100.2 11.57 100.434 11.4123C100.667 11.2546 100.784 11.0213 100.784 10.7122V10.6555C100.784 10.0563 100.595 9.59277 100.216 9.26481C99.8441 8.93686 99.3144 8.77288 98.6269 8.77288C97.9016 8.77288 97.3246 8.9337 96.8957 9.25535C96.4668 9.57069 96.183 9.96802 96.0443 10.4473L92.3169 10.1446C92.5062 9.26166 92.8783 8.49853 93.4333 7.85523C93.9883 7.20563 94.7041 6.70739 95.5807 6.36051C96.4637 6.00733 97.4854 5.83074 98.6459 5.83074C99.4531 5.83074 100.226 5.92534 100.964 6.11455C101.708 6.30375 102.367 6.59702 102.941 6.99435C103.521 7.39168 103.978 7.90254 104.313 8.52691C104.647 9.14498 104.814 9.88603 104.814 10.7501V20.5509H100.992V18.5359H100.878C100.645 18.9899 100.333 19.3904 99.9419 19.7373C99.5509 20.0779 99.081 20.3459 98.5323 20.5414C97.9836 20.7306 97.3498 20.8252 96.6308 20.8252ZM97.785 18.0439C98.3778 18.0439 98.9013 17.9272 99.3554 17.6939C99.8095 17.4542 100.166 17.1326 100.424 16.7289C100.683 16.3253 100.812 15.8681 100.812 15.3572V13.8152C100.686 13.8972 100.513 13.9729 100.292 14.0422C100.077 14.1053 99.8347 14.1652 99.5635 14.222C99.2923 14.2724 99.0211 14.3197 98.7499 14.3639C98.4787 14.4017 98.2327 14.4364 98.012 14.4679C97.539 14.5373 97.1259 14.6477 96.7727 14.7991C96.4195 14.9504 96.1452 15.1554 95.9497 15.414C95.7542 15.6662 95.6564 15.9816 95.6564 16.36C95.6564 16.9087 95.8551 17.3281 96.2524 17.6182C96.656 17.902 97.1669 18.0439 97.785 18.0439Z" fill="white"/>
<path d="M109.209 20.5509L105.254 6.01995H109.332L111.583 15.7829H111.716L114.062 6.01995H118.063L120.447 15.7262H120.57L122.784 6.01995H126.852L122.907 20.5509H118.64L116.143 11.4123H115.963L113.466 20.5509H109.209Z" fill="white"/>
<path d="M131.547 20.8252C130.62 20.8252 129.794 20.6644 129.068 20.3428C128.343 20.0148 127.769 19.5323 127.347 18.8953C126.93 18.252 126.722 17.4511 126.722 16.4924C126.722 15.6852 126.87 15.0072 127.167 14.4585C127.463 13.9098 127.867 13.4683 128.378 13.1341C128.889 12.7998 129.469 12.5475 130.118 12.3772C130.774 12.2069 131.462 12.0871 132.181 12.0177C133.026 11.9294 133.707 11.8475 134.224 11.7718C134.741 11.6898 135.117 11.57 135.35 11.4123C135.583 11.2546 135.7 11.0213 135.7 10.7122V10.6555C135.7 10.0563 135.511 9.59277 135.132 9.26481C134.76 8.93686 134.231 8.77288 133.543 8.77288C132.818 8.77288 132.241 8.9337 131.812 9.25535C131.383 9.57069 131.099 9.96802 130.96 10.4473L127.233 10.1446C127.422 9.26166 127.794 8.49853 128.349 7.85523C128.904 7.20563 129.62 6.70739 130.497 6.36051C131.38 6.00733 132.402 5.83074 133.562 5.83074C134.369 5.83074 135.142 5.92534 135.88 6.11455C136.624 6.30375 137.283 6.59702 137.857 6.99435C138.437 7.39168 138.894 7.90254 139.229 8.52691C139.563 9.14498 139.73 9.88603 139.73 10.7501V20.5509H135.908V18.5359H135.795C135.561 18.9899 135.249 19.3904 134.858 19.7373C134.467 20.0779 133.997 20.3459 133.448 20.5414C132.9 20.7306 132.266 20.8252 131.547 20.8252ZM132.701 18.0439C133.294 18.0439 133.817 17.9272 134.272 17.6939C134.726 17.4542 135.082 17.1326 135.341 16.7289C135.599 16.3253 135.728 15.8681 135.728 15.3572V13.8152C135.602 13.8972 135.429 13.9729 135.208 14.0422C134.994 14.1053 134.751 14.1652 134.48 14.222C134.208 14.2724 133.937 14.3197 133.666 14.3639C133.395 14.4017 133.149 14.4364 132.928 14.4679C132.455 14.5373 132.042 14.6477 131.689 14.7991C131.336 14.9504 131.061 15.1554 130.866 15.414C130.67 15.6662 130.573 15.9816 130.573 16.36C130.573 16.9087 130.771 17.3281 131.169 17.6182C131.572 17.902 132.083 18.0439 132.701 18.0439Z" fill="white"/>
<path d="M143.226 26C142.715 26 142.236 25.959 141.788 25.877C141.347 25.8013 140.981 25.7036 140.691 25.5837L141.599 22.5754C142.072 22.7204 142.498 22.7993 142.876 22.8119C143.261 22.8245 143.592 22.7362 143.869 22.547C144.153 22.3578 144.383 22.0361 144.56 21.5821L144.796 20.9671L139.584 6.01995H143.822L146.83 16.6911H146.982L150.018 6.01995H154.285L148.637 22.1213C148.366 22.9033 147.997 23.5845 147.53 24.1647C147.07 24.7512 146.487 25.2022 145.78 25.5175C145.074 25.8392 144.223 26 143.226 26Z" fill="white"/>
<path fill-rule="evenodd" clip-rule="evenodd" d="M17.316 17.468L27.4012 2.31155e-05L31.0266 2.09317L20.9415 19.5612L17.316 17.468Z" fill="white"/>
<rect y="7.23087" width="13.32" height="13.32" rx="6.66001" fill="white"/>
</svg>
