<svg width="105" height="37" viewBox="0 0 105 37" fill="none" xmlns="http://www.w3.org/2000/svg">
<path d="M20.4148 10.6875C20.2557 9.19886 19.5852 8.03977 18.4034 7.21023C17.233 6.38068 15.7102 5.96591 13.8352 5.96591C12.517 5.96591 11.3864 6.16477 10.4432 6.5625C9.5 6.96023 8.77841 7.5 8.27841 8.18182C7.77841 8.86364 7.52273 9.64205 7.51136 10.517C7.51136 11.2443 7.67614 11.875 8.00568 12.4091C8.34659 12.9432 8.80682 13.3977 9.38636 13.7727C9.96591 14.1364 10.608 14.4432 11.3125 14.6932C12.017 14.9432 12.7273 15.1534 13.4432 15.3239L16.7159 16.142C18.0341 16.4489 19.3011 16.8636 20.517 17.3864C21.7443 17.9091 22.8409 18.5682 23.8068 19.3636C24.7841 20.1591 25.5568 21.1193 26.125 22.2443C26.6932 23.3693 26.9773 24.6875 26.9773 26.1989C26.9773 28.2443 26.4545 30.0455 25.4091 31.6023C24.3636 33.1477 22.8523 34.358 20.875 35.233C18.9091 36.0966 16.5284 36.5284 13.733 36.5284C11.017 36.5284 8.65909 36.108 6.65909 35.267C4.67045 34.4261 3.11364 33.1989 1.98864 31.5852C0.875 29.9716 0.272727 28.0057 0.181818 25.6875H6.40341C6.49432 26.9034 6.86932 27.9148 7.52841 28.7216C8.1875 29.5284 9.04545 30.1307 10.1023 30.5284C11.1705 30.9261 12.3636 31.125 13.6818 31.125C15.0568 31.125 16.2614 30.9205 17.2955 30.5114C18.3409 30.0909 19.1591 29.5114 19.75 28.7727C20.3409 28.0227 20.642 27.1477 20.6534 26.1477C20.642 25.2386 20.375 24.4886 19.8523 23.8977C19.3295 23.2955 18.5966 22.7955 17.6534 22.3977C16.7216 21.9886 15.6307 21.625 14.3807 21.3068L10.4091 20.2841C7.53409 19.5455 5.26136 18.4261 3.59091 16.9261C1.93182 15.4148 1.10227 13.4091 1.10227 10.9091C1.10227 8.85227 1.65909 7.05114 2.77273 5.50568C3.89773 3.96023 5.42614 2.76136 7.35795 1.90909C9.28977 1.04545 11.4773 0.613635 13.9205 0.613635C16.3977 0.613635 18.5682 1.04545 20.4318 1.90909C22.3068 2.76136 23.7784 3.94886 24.8466 5.47159C25.9148 6.98295 26.4659 8.72159 26.5 10.6875H20.4148ZM30.6951 36V1.09091H37.0189V30.6989H52.3939V36H30.6951ZM62.2864 1.09091V36H55.9626V1.09091H62.2864ZM73.5383 1.09091V36H67.2144V1.09091H73.5383ZM76.9322 6.39205V1.09091H104.784V6.39205H93.9947V36H87.722V6.39205H76.9322Z" fill="#888888"/>
</svg>
