<svg width="532" height="111" viewBox="0 0 532 111" fill="none" xmlns="http://www.w3.org/2000/svg">
<path d="M0.593124 86.4012V0.231717H18.517V32.6294H19.064C19.8494 30.8903 20.9854 29.1232 22.4721 27.328C23.9868 25.5047 25.9503 23.99 28.3626 22.7839C30.8029 21.5497 33.8323 20.9326 37.4508 20.9326C42.1632 20.9326 46.5109 22.1668 50.494 24.6352C54.4771 27.0755 57.6608 30.7641 60.045 35.7009C62.4293 40.6096 63.6214 46.7666 63.6214 54.1718C63.6214 61.3806 62.4573 67.4675 60.1292 72.4323C57.8291 77.3691 54.6875 81.1138 50.7044 83.6663C46.7493 86.1908 42.3174 87.4531 37.4087 87.4531C33.9305 87.4531 30.9712 86.878 28.5309 85.728C26.1186 84.578 24.1411 83.1334 22.5983 81.3943C21.0556 79.6271 19.8775 77.846 19.064 76.0508H18.2646V86.4012H0.593124ZM18.1384 54.0876C18.1384 57.9305 18.6713 61.2825 19.7372 64.1436C20.8031 67.0047 22.3459 69.2346 24.3655 70.8335C26.3851 72.4043 28.8394 73.1897 31.7286 73.1897C34.6458 73.1897 37.1142 72.3902 39.1338 70.7914C41.1534 69.1645 42.6821 66.9205 43.7199 64.0594C44.7858 61.1703 45.3188 57.8463 45.3188 54.0876C45.3188 50.357 44.7999 47.0752 43.762 44.2421C42.7242 41.4091 41.1954 39.1931 39.1758 37.5943C37.1562 35.9954 34.6738 35.196 31.7286 35.196C28.8114 35.196 26.343 35.9674 24.3234 37.5101C22.3318 39.0529 20.8031 41.2408 19.7372 44.0738C18.6713 46.9069 18.1384 50.2448 18.1384 54.0876Z" fill="white"/>
<path d="M86.901 87.6214C82.7777 87.6214 79.1031 86.9061 75.8774 85.4756C72.6516 84.0169 70.0991 81.8711 68.2198 79.0381C66.3685 76.177 65.4428 72.6146 65.4428 68.351C65.4428 64.7607 66.102 61.7453 67.4203 59.3049C68.7387 56.8646 70.5339 54.9011 72.8059 53.4144C75.078 51.9278 77.6586 50.8058 80.5477 50.0485C83.4649 49.2911 86.5224 48.7582 89.7201 48.4496C93.4787 48.0569 96.5081 47.6923 98.8082 47.3557C101.108 46.991 102.777 46.4581 103.815 45.7568C104.853 45.0556 105.372 44.0177 105.372 42.6433V42.3908C105.372 39.7261 104.53 37.6644 102.847 36.2058C101.192 34.7472 98.8363 34.0179 95.7788 34.0179C92.5531 34.0179 89.9865 34.7332 88.0791 36.1637C86.1717 37.5662 84.9095 39.3334 84.2924 41.4652L67.7149 40.1188C68.5564 36.1918 70.2113 32.7977 72.6797 29.9366C75.1481 27.0475 78.3318 24.8315 82.2307 23.2888C86.1577 21.718 90.7018 20.9326 95.863 20.9326C99.4534 20.9326 102.89 21.3533 106.171 22.1948C109.481 23.0363 112.412 24.3407 114.965 26.1078C117.546 27.875 119.579 30.147 121.066 32.924C122.553 35.6728 123.296 38.9687 123.296 42.8116V86.4012H106.298V77.4392H105.793C104.755 79.4588 103.366 81.24 101.627 82.7828C99.8882 84.2975 97.7984 85.4896 95.3581 86.3591C92.9177 87.2006 90.0987 87.6214 86.901 87.6214ZM92.0342 75.2513C94.6709 75.2513 96.999 74.7324 99.0186 73.6946C101.038 72.6287 102.623 71.1981 103.773 69.4029C104.923 67.6077 105.498 65.5741 105.498 63.3021V56.4438C104.937 56.8085 104.166 57.1451 103.184 57.4536C102.23 57.7341 101.15 58.0006 99.9443 58.2531C98.7381 58.4775 97.532 58.6878 96.3258 58.8842C95.1197 59.0525 94.0257 59.2068 93.044 59.347C90.9402 59.6556 89.103 60.1464 87.5322 60.8196C85.9614 61.4928 84.7412 62.4045 83.8716 63.5545C83.0021 64.6765 82.5673 66.079 82.5673 67.762C82.5673 70.2023 83.4509 72.0677 85.218 73.358C87.0132 74.6202 89.2853 75.2513 92.0342 75.2513Z" fill="white"/>
<path d="M183.864 40.2029L167.455 41.2127C167.175 39.8102 166.572 38.548 165.646 37.426C164.72 36.2759 163.5 35.3643 161.985 34.6911C160.499 33.9898 158.718 33.6392 156.642 33.6392C153.865 33.6392 151.523 34.2283 149.615 35.4064C147.708 36.5564 146.754 38.0992 146.754 40.0346C146.754 41.5774 147.371 42.8817 148.606 43.9476C149.84 45.0135 151.958 45.869 154.959 46.5142L166.656 48.8704C172.939 50.1606 177.623 52.2363 180.709 55.0974C183.794 57.9585 185.337 61.7172 185.337 66.3735C185.337 70.6091 184.089 74.3257 181.592 77.5234C179.124 80.7211 175.73 83.2175 171.41 85.0127C167.119 86.7799 162.168 87.6634 156.558 87.6634C148.003 87.6634 141.186 85.8823 136.109 82.3199C131.06 78.7295 128.101 73.8488 127.232 67.6778L144.861 66.7522C145.394 69.3608 146.684 71.3524 148.732 72.7268C150.779 74.0732 153.402 74.7464 156.6 74.7464C159.741 74.7464 162.266 74.1434 164.173 72.9372C166.109 71.703 167.091 70.1182 167.119 68.1828C167.091 66.5559 166.403 65.2235 165.057 64.1856C163.711 63.1197 161.635 62.3063 158.83 61.7453L147.638 59.5153C141.327 58.2531 136.628 56.0652 133.543 52.9516C130.485 49.8381 128.957 45.869 128.957 41.0444C128.957 36.893 130.079 33.3166 132.323 30.3153C134.595 27.314 137.778 24.9998 141.874 23.3729C145.997 21.746 150.822 20.9326 156.347 20.9326C164.51 20.9326 170.933 22.6577 175.618 26.1078C180.33 29.558 183.079 34.2563 183.864 40.2029Z" fill="white"/>
<path d="M207.439 49.0387V86.4012H189.515V0.231717H206.934V33.1764H207.691C209.15 29.3616 211.506 26.3743 214.76 24.2144C218.013 22.0265 222.095 20.9326 227.003 20.9326C231.491 20.9326 235.404 21.9143 238.742 23.8778C242.108 25.8133 244.717 28.6043 246.568 32.2507C248.448 35.8692 249.373 40.2029 249.345 45.2519V86.4012H231.421V48.4496C231.449 44.4665 230.44 41.367 228.392 39.151C226.372 36.9351 223.539 35.8271 219.893 35.8271C217.452 35.8271 215.293 36.346 213.413 37.3839C211.562 38.4217 210.103 39.9364 209.037 41.928C208 43.8915 207.467 46.2617 207.439 49.0387Z" fill="white"/>
<path d="M274.771 87.6214C270.647 87.6214 266.973 86.9061 263.747 85.4756C260.521 84.0169 257.969 81.8711 256.089 79.0381C254.238 76.177 253.312 72.6146 253.312 68.351C253.312 64.7607 253.972 61.7453 255.29 59.3049C256.608 56.8646 258.404 54.9011 260.676 53.4144C262.948 51.9278 265.528 50.8058 268.417 50.0485C271.335 49.2911 274.392 48.7582 277.59 48.4496C281.348 48.0569 284.378 47.6923 286.678 47.3557C288.978 46.991 290.647 46.4581 291.685 45.7568C292.723 45.0556 293.242 44.0177 293.242 42.6433V42.3908C293.242 39.7261 292.4 37.6644 290.717 36.2058C289.062 34.7472 286.706 34.0179 283.648 34.0179C280.423 34.0179 277.856 34.7332 275.949 36.1637C274.041 37.5662 272.779 39.3334 272.162 41.4652L255.585 40.1188C256.426 36.1918 258.081 32.7977 260.549 29.9366C263.018 27.0475 266.201 24.8315 270.1 23.2888C274.027 21.718 278.571 20.9326 283.733 20.9326C287.323 20.9326 290.759 21.3533 294.041 22.1948C297.351 23.0363 300.282 24.3407 302.835 26.1078C305.415 27.875 307.449 30.147 308.936 32.924C310.422 35.6728 311.166 38.9687 311.166 42.8116V86.4012H294.167V77.4392H293.662C292.624 79.4588 291.236 81.24 289.497 82.7828C287.758 84.2975 285.668 85.4896 283.228 86.3591C280.787 87.2006 277.968 87.6214 274.771 87.6214ZM279.904 75.2513C282.541 75.2513 284.869 74.7324 286.888 73.6946C288.908 72.6287 290.493 71.1981 291.643 69.4029C292.793 67.6077 293.368 65.5741 293.368 63.3021V56.4438C292.807 56.8085 292.035 57.1451 291.054 57.4536C290.1 57.7341 289.02 58.0006 287.814 58.2531C286.608 58.4775 285.402 58.6878 284.195 58.8842C282.989 59.0525 281.895 59.2068 280.914 59.347C278.81 59.6556 276.973 60.1464 275.402 60.8196C273.831 61.4928 272.611 62.4045 271.741 63.5545C270.872 64.6765 270.437 66.079 270.437 67.762C270.437 70.2023 271.321 72.0677 273.088 73.358C274.883 74.6202 277.155 75.2513 279.904 75.2513Z" fill="white"/>
<path d="M330.711 86.4012L313.124 21.7741H331.258L341.272 65.1954H341.861L352.295 21.7741H370.093L380.696 64.943H381.243L391.089 21.7741H409.181L391.636 86.4012H372.66L361.552 45.7568H360.753L349.645 86.4012H330.711Z" fill="white"/>
<path d="M430.062 87.6214C425.939 87.6214 422.264 86.9061 419.039 85.4756C415.813 84.0169 413.26 81.8711 411.381 79.0381C409.53 76.177 408.604 72.6146 408.604 68.351C408.604 64.7607 409.263 61.7453 410.581 59.3049C411.9 56.8646 413.695 54.9011 415.967 53.4144C418.239 51.9278 420.82 50.8058 423.709 50.0485C426.626 49.2911 429.683 48.7582 432.881 48.4496C436.64 48.0569 439.669 47.6923 441.969 47.3557C444.269 46.991 445.938 46.4581 446.976 45.7568C448.014 45.0556 448.533 44.0177 448.533 42.6433V42.3908C448.533 39.7261 447.692 37.6644 446.009 36.2058C444.354 34.7472 441.997 34.0179 438.94 34.0179C435.714 34.0179 433.148 34.7332 431.24 36.1637C429.333 37.5662 428.071 39.3334 427.454 41.4652L410.876 40.1188C411.717 36.1918 413.372 32.7977 415.841 29.9366C418.309 27.0475 421.493 24.8315 425.392 23.2888C429.319 21.718 433.863 20.9326 439.024 20.9326C442.614 20.9326 446.051 21.3533 449.332 22.1948C452.642 23.0363 455.574 24.3407 458.126 26.1078C460.707 27.875 462.74 30.147 464.227 32.924C465.714 35.6728 466.457 38.9687 466.457 42.8116V86.4012H449.459V77.4392H448.954C447.916 79.4588 446.527 81.24 444.788 82.7828C443.049 84.2975 440.96 85.4896 438.519 86.3591C436.079 87.2006 433.26 87.6214 430.062 87.6214ZM435.195 75.2513C437.832 75.2513 440.16 74.7324 442.18 73.6946C444.199 72.6287 445.784 71.1981 446.934 69.4029C448.084 67.6077 448.659 65.5741 448.659 63.3021V56.4438C448.098 56.8085 447.327 57.1451 446.345 57.4536C445.391 57.7341 444.312 58.0006 443.105 58.2531C441.899 58.4775 440.693 58.6878 439.487 58.8842C438.281 59.0525 437.187 59.2068 436.205 59.347C434.101 59.6556 432.264 60.1464 430.693 60.8196C429.122 61.4928 427.902 62.4045 427.033 63.5545C426.163 64.6765 425.728 66.079 425.728 67.762C425.728 70.2023 426.612 72.0677 428.379 73.358C430.174 74.6202 432.446 75.2513 435.195 75.2513Z" fill="white"/>
<path d="M482.005 110.636C479.733 110.636 477.602 110.454 475.61 110.089C473.646 109.753 472.02 109.318 470.729 108.785L474.768 95.4052C476.872 96.0504 478.766 96.401 480.449 96.4571C482.16 96.5132 483.632 96.1205 484.866 95.279C486.129 94.4375 487.153 93.007 487.938 90.9874L488.99 88.2525L465.807 21.7741H484.656L498.036 69.2346H498.709L512.215 21.7741H531.191L506.072 93.3856C504.866 96.8638 503.225 99.8932 501.149 102.474C499.102 105.082 496.507 107.088 493.366 108.491C490.224 109.921 486.437 110.636 482.005 110.636Z" fill="white"/>
</svg>
