<svg width="14" height="14" viewBox="0 0 14 14" fill="none" xmlns="http://www.w3.org/2000/svg">
<path d="M6.99825 4.66567C5.71288 4.66567 4.66392 5.71463 4.66392 7C4.66392 8.28537 5.71288 9.33433 6.99825 9.33433C8.28362 9.33433 9.33258 8.28537 9.33258 7C9.33258 5.71463 8.28362 4.66567 6.99825 4.66567ZM13.9995 7C13.9995 6.03335 14.0082 5.07545 13.9539 4.11055C13.8997 2.98979 13.644 1.99512 12.8244 1.17556C12.0031 0.35426 11.0102 0.100338 9.88945 0.0460516C8.9228 -0.00823506 7.9649 0.000520879 7 0.000520879C6.03335 0.000520879 5.07545 -0.00823506 4.11055 0.0460516C2.98979 0.100338 1.99512 0.356011 1.17556 1.17556C0.35426 1.99687 0.100338 2.98979 0.0460516 4.11055C-0.00823506 5.0772 0.000520879 6.0351 0.000520879 7C0.000520879 7.9649 -0.00823506 8.92455 0.0460516 9.88945C0.100338 11.0102 0.356011 12.0049 1.17556 12.8244C1.99687 13.6457 2.98979 13.8997 4.11055 13.9539C5.0772 14.0082 6.0351 13.9995 7 13.9995C7.96665 13.9995 8.92455 14.0082 9.88945 13.9539C11.0102 13.8997 12.0049 13.644 12.8244 12.8244C13.6457 12.0031 13.8997 11.0102 13.9539 9.88945C14.01 8.92455 13.9995 7.96665 13.9995 7ZM6.99825 10.5917C5.01066 10.5917 3.40657 8.98759 3.40657 7C3.40657 5.01241 5.01066 3.40832 6.99825 3.40832C8.98584 3.40832 10.5899 5.01241 10.5899 7C10.5899 8.98759 8.98584 10.5917 6.99825 10.5917ZM10.737 4.10004C10.273 4.10004 9.89821 3.72529 9.89821 3.26122C9.89821 2.79716 10.273 2.42241 10.737 2.42241C11.2011 2.42241 11.5758 2.79716 11.5758 3.26122C11.576 3.37142 11.5544 3.48056 11.5123 3.58239C11.4702 3.68422 11.4084 3.77675 11.3305 3.85467C11.2525 3.93258 11.16 3.99437 11.0582 4.03647C10.9564 4.07858 10.8472 4.10018 10.737 4.10004Z" fill="#888888"/>
</svg>
