<svg width="102" height="102" viewBox="0 0 102 102" fill="none" xmlns="http://www.w3.org/2000/svg">
<path d="M27.6709 10.0942C31.6887 9.77353 35.503 8.19372 38.5709 5.57962C42.0375 2.62367 46.4442 1 51 1C55.5558 1 59.9625 2.62367 63.4291 5.57962C66.497 8.19372 70.3113 9.77353 74.3291 10.0942C78.8703 10.4555 83.1341 12.4233 86.3554 15.6446C89.5767 18.8659 91.5445 23.1297 91.9058 27.6709C92.2265 31.6887 93.8063 35.503 96.4204 38.5709C99.3763 42.0375 101 46.4442 101 51C101 55.5558 99.3763 59.9625 96.4204 63.4291C93.8063 66.497 92.2265 70.3113 91.9058 74.3291C91.5445 78.8703 89.5767 83.1341 86.3554 86.3554C83.1341 89.5767 78.8703 91.5445 74.3291 91.9058C70.3113 92.2265 66.497 93.8063 63.4291 96.4204C59.9625 99.3763 55.5558 101 51 101C46.4442 101 42.0375 99.3763 38.5709 96.4204C35.503 93.8063 31.6887 92.2265 27.6709 91.9058C23.1297 91.5445 18.8659 89.5767 15.6446 86.3554C12.4233 83.1341 10.4555 78.8703 10.0942 74.3291C9.77353 70.3113 8.19372 66.497 5.57962 63.4291C2.62367 59.9625 1 55.5558 1 51C1 46.4442 2.62367 42.0375 5.57962 38.5709C8.19372 35.503 9.77353 31.6887 10.0942 27.6709C10.4555 23.1297 12.4233 18.8659 15.6446 15.6446C18.8659 12.4233 23.1297 10.4555 27.6709 10.0942Z" stroke="white" stroke-width="2" stroke-linecap="round" stroke-linejoin="round"/>
<path d="M51.4834 76.2089C48.7258 76.2089 46.2637 75.6862 44.097 74.6408C41.9303 73.5801 40.2106 72.1332 38.9379 70.2998C37.6803 68.4514 37.0288 66.3301 36.9834 63.9362H39.8697C39.9152 65.8301 40.4531 67.5044 41.4834 68.9589C42.5137 70.3983 43.8925 71.5271 45.6197 72.3453C47.3622 73.1635 49.3016 73.5726 51.4379 73.5726C53.7561 73.5726 55.7864 73.118 57.5288 72.2089C59.2864 71.2998 60.6576 70.0726 61.6425 68.5271C62.6273 66.9665 63.1197 65.2241 63.1197 63.2998C63.1197 61.2392 62.5819 59.4362 61.5061 57.8908C60.4303 56.3301 58.9303 55.118 57.0061 54.2544C55.0819 53.3756 52.847 52.9362 50.3016 52.9362H48.5743V50.2998H50.3016C52.4682 50.2998 54.4076 49.9059 56.1197 49.118C57.8319 48.315 59.1803 47.1862 60.1652 45.7317C61.1652 44.2771 61.6652 42.5574 61.6652 40.5726C61.6652 38.7089 61.2334 37.0574 60.3697 35.618C59.5061 34.1786 58.3091 33.0498 56.7788 32.2317C55.2637 31.4135 53.4834 31.0044 51.4379 31.0044C49.4682 31.0044 47.6803 31.4059 46.0743 32.2089C44.4834 33.012 43.2182 34.1408 42.2788 35.5953C41.3394 37.0498 40.8622 38.7392 40.847 40.6635H38.0516C38.0819 38.2544 38.6879 36.1256 39.8697 34.2771C41.0667 32.4286 42.6652 30.9892 44.6652 29.9589C46.6803 28.9135 48.9531 28.3908 51.4834 28.3908C54.0591 28.3908 56.3167 28.9286 58.2561 30.0044C60.2107 31.0801 61.7258 32.5347 62.8016 34.368C63.8925 36.2014 64.4379 38.2392 64.4379 40.4817C64.4379 43.1786 63.6879 45.4892 62.1879 47.4135C60.7031 49.3226 58.6879 50.6483 56.1425 51.3908V51.6408C59.1576 52.3074 61.544 53.6786 63.3016 55.7544C65.0591 57.8301 65.9379 60.3453 65.9379 63.2998C65.9379 65.7241 65.3167 67.9135 64.0743 69.868C62.8319 71.8226 61.1197 73.368 58.9379 74.5044C56.7713 75.6408 54.2864 76.2089 51.4834 76.2089Z" fill="white"/>
</svg>
