<svg width="158" height="158" viewBox="0 0 158 158" fill="none" xmlns="http://www.w3.org/2000/svg">
<path d="M119.734 78.0177C125.353 69.9714 128.655 60.1922 128.655 49.6549C128.655 22.2751 106.38 0 79.0002 0C51.6207 0 29.3453 22.2751 29.3453 49.6546C29.3453 60.1918 32.6472 69.971 38.2669 78.0173L12.04 141.335L38.8223 133.574L52.2726 158L76.6074 99.2513C77.4003 99.2891 78.1979 99.3099 79.0002 99.3099C79.8025 99.3099 80.5998 99.2891 81.393 99.2513L105.728 158L119.178 133.574L145.96 141.335L119.734 78.0177ZM50.9899 134.837L43.7472 121.684L29.3259 125.863L45.6623 86.4234C51.482 91.7048 58.5569 95.6254 66.3794 97.6825L50.9899 134.837ZM39.3948 49.6546C39.3948 27.8164 57.1616 10.0495 79.0002 10.0495C100.839 10.0495 118.606 27.8164 118.606 49.6546C118.606 71.4932 100.839 89.26 79.0002 89.26C57.1616 89.26 39.3948 71.4935 39.3948 49.6546ZM114.253 121.684L107.01 134.837L91.6204 97.6829C99.4429 95.6257 106.518 91.7051 112.337 86.4237L128.674 125.863L114.253 121.684Z" fill="#85888B"/>
<path d="M63.7727 73V65.9091L80.3409 50.5682C81.75 49.2045 82.9318 47.9773 83.8864 46.8864C84.8561 45.7955 85.5909 44.7273 86.0909 43.6818C86.5909 42.6212 86.8409 41.4773 86.8409 40.25C86.8409 38.8864 86.5303 37.7121 85.9091 36.7273C85.2879 35.7273 84.4394 34.9621 83.3636 34.4318C82.2879 33.8864 81.0682 33.6136 79.7045 33.6136C78.2803 33.6136 77.0379 33.9015 75.9773 34.4773C74.9167 35.053 74.0985 35.8788 73.5227 36.9545C72.947 38.0303 72.6591 39.3106 72.6591 40.7955H63.3182C63.3182 37.75 64.0076 35.1061 65.3864 32.8636C66.7652 30.6212 68.697 28.8864 71.1818 27.6591C73.6667 26.4318 76.5303 25.8182 79.7727 25.8182C83.1061 25.8182 86.0076 26.4091 88.4773 27.5909C90.9621 28.7576 92.8939 30.3788 94.2727 32.4545C95.6515 34.5303 96.3409 36.9091 96.3409 39.5909C96.3409 41.3485 95.9924 43.0833 95.2955 44.7955C94.6136 46.5076 93.3939 48.4091 91.6364 50.5C89.8788 52.5758 87.4015 55.0682 84.2045 57.9773L77.4091 64.6364V64.9545H96.9545V73H63.7727Z" fill="#85888B"/>
</svg>
