<svg width="102" height="102" viewBox="0 0 102 102" fill="none" xmlns="http://www.w3.org/2000/svg">
<path d="M27.6709 10.0942C31.6887 9.77353 35.503 8.19372 38.5709 5.57962C42.0375 2.62367 46.4442 1 51 1C55.5558 1 59.9625 2.62367 63.4291 5.57962C66.497 8.19372 70.3113 9.77353 74.3291 10.0942C78.8703 10.4555 83.1341 12.4233 86.3554 15.6446C89.5767 18.8659 91.5445 23.1297 91.9058 27.6709C92.2265 31.6887 93.8063 35.503 96.4204 38.5709C99.3763 42.0375 101 46.4442 101 51C101 55.5558 99.3763 59.9625 96.4204 63.4291C93.8063 66.497 92.2265 70.3113 91.9058 74.3291C91.5445 78.8703 89.5767 83.1341 86.3554 86.3554C83.1341 89.5767 78.8703 91.5445 74.3291 91.9058C70.3113 92.2265 66.497 93.8063 63.4291 96.4204C59.9625 99.3763 55.5558 101 51 101C46.4442 101 42.0375 99.3763 38.5709 96.4204C35.503 93.8063 31.6887 92.2265 27.6709 91.9058C23.1297 91.5445 18.8659 89.5767 15.6446 86.3554C12.4233 83.1341 10.4555 78.8703 10.0942 74.3291C9.77353 70.3113 8.19372 66.497 5.57962 63.4291C2.62367 59.9625 1 55.5558 1 51C1 46.4442 2.62367 42.0375 5.57962 38.5709C8.19372 35.503 9.77353 31.6887 10.0942 27.6709C10.4555 23.1297 12.4233 18.8659 15.6446 15.6446C18.8659 12.4233 23.1297 10.4555 27.6709 10.0942Z" stroke="white" stroke-width="2" stroke-linecap="round" stroke-linejoin="round"/>
<path d="M37.1481 75.5726V73.4135L52.2163 56.0498C54.3678 53.565 56.0724 51.4589 57.33 49.7317C58.5875 48.0044 59.4891 46.4438 60.0345 45.0498C60.58 43.6559 60.8527 42.2014 60.8527 40.6862C60.8527 38.7923 60.4057 37.118 59.5118 35.6635C58.633 34.1938 57.4285 33.0498 55.8982 32.2317C54.383 31.4135 52.6557 31.0044 50.7163 31.0044C48.686 31.0044 46.9057 31.4514 45.3754 32.3453C43.8451 33.2392 42.6482 34.4514 41.7845 35.9817C40.936 37.512 40.5118 39.2317 40.5118 41.1408H37.7618C37.7618 38.7317 38.3224 36.565 39.4436 34.6408C40.5648 32.7165 42.1027 31.1938 44.0572 30.0726C46.0269 28.9514 48.2694 28.3908 50.7845 28.3908C53.2542 28.3908 55.4512 28.9286 57.3754 30.0044C59.2997 31.0801 60.8148 32.5498 61.9209 34.4135C63.0269 36.262 63.58 38.3529 63.58 40.6862C63.58 42.3983 63.2845 44.0498 62.6936 45.6408C62.1178 47.2165 61.1254 48.9817 59.7163 50.9362C58.3072 52.8756 56.3603 55.2695 53.8754 58.118L41.2391 72.6862V72.9362H65.6709V75.5726H37.1481Z" fill="white"/>
</svg>
