<svg width="91" height="102" viewBox="0 0 91 102" fill="none" xmlns="http://www.w3.org/2000/svg">
<path d="M76.8725 87.9823C68.5374 96.3174 57.2326 101 45.4451 101C33.6575 101 22.3527 96.3174 14.0177 87.9823C5.68259 79.6473 1 68.3425 1 56.5549C1 44.7674 5.68259 33.4626 14.0177 25.1275C14.0177 25.1275 17.6676 34.333 28.7786 39.8884C28.7786 28.7775 31.5563 12.111 45.3673 1C56.5561 12.111 68.167 16.4276 76.8669 25.1275C81.001 29.2496 84.2797 34.1482 86.5145 39.5416C88.7493 44.935 89.8961 50.7169 89.889 56.5549C89.8968 62.3926 88.7509 68.1742 86.517 73.5676C84.2832 78.961 81.0056 83.8597 76.8725 87.9823V87.9823Z" stroke="white" stroke-width="2" stroke-linecap="round" stroke-linejoin="round"/>
<path d="M33.6618 73.8929C35.5973 75.8289 37.9798 77.2583 40.5989 78.0549C43.218 78.8514 45.993 78.9905 48.6786 78.46C51.3642 77.9294 53.8778 76.7454 55.9972 75.0128C58.1166 73.2801 59.7766 71.052 60.8304 68.5255C61.8843 65.9989 62.2995 63.2517 62.0395 60.5265C61.7795 57.8013 60.8522 55.1822 59.3396 52.9005C57.827 50.6188 55.7756 48.7449 53.3668 47.4442C50.958 46.1436 48.2659 45.4564 45.5284 45.4432L39.8895 62.1097H28.7786C28.7786 66.3763 30.4063 70.6429 33.6618 73.8929Z" stroke="white" stroke-width="2" stroke-linecap="round" stroke-linejoin="round"/>
</svg>
