<svg id="Layer_1" data-name="Layer 1" xmlns="http://www.w3.org/2000/svg" viewBox="0 0 500 234.19">
    <defs>
        <style>.cls-1{fill:#24c3b5;}</style>
    </defs>
    <title>MicroRewards</title>
    <path class="cls-1"
        d="M29.54,179.92h-20a3,3,0,0,0-3,3.05v47.78a3,3,0,1,0,6,0V212.63H27.94L43,232.2a3.5,3.5,0,0,0,2.82,1.61,3.16,3.16,0,0,0,3.06-3,3.3,3.3,0,0,0-1-2.22l-13.3-17.12c8.33-1.61,14.29-6.73,14.29-15.52v-.15a14.77,14.77,0,0,0-4.13-10.55C41.39,181.9,36.12,179.92,29.54,179.92ZM42.77,196.2c0,6.88-5.74,11-13.76,11H12.57V185.5H29.08c8.64,0,13.69,4,13.69,10.55Z" />
    <path class="cls-1"
        d="M113.7,227.92H83.13V209.19h26.75a2.74,2.74,0,0,0,2.75-2.75,2.79,2.79,0,0,0-2.75-2.75H83.13V185.42h30.19a2.75,2.75,0,1,0,0-5.5H80.07a3,3,0,0,0-3,3.05v47.4a3.05,3.05,0,0,0,3,3.06H113.7a2.76,2.76,0,1,0,0-5.51Z" />
    <path class="cls-1"
        d="M213.15,179.54a3.07,3.07,0,0,0-2.9,2.36l-14.83,42.66-14-42.66a3.1,3.1,0,0,0-3-2.36h-.38a3,3,0,0,0-3,2.36l-14,42.66-14.75-42.5a3.42,3.42,0,0,0-3.14-2.52,3.18,3.18,0,0,0-3.13,3.05,4.56,4.56,0,0,0,.3,1.38l17.13,47.55a3.29,3.29,0,0,0,3.13,2.59h.46a3.38,3.38,0,0,0,3.13-2.59l13.84-41.13L192,231.52a3.4,3.4,0,0,0,3.13,2.59h.46a3.4,3.4,0,0,0,3.14-2.59L215.83,184a5.28,5.28,0,0,0,.38-1.45A3.16,3.16,0,0,0,213.15,179.54Z" />
    <path class="cls-1"
        d="M263.07,182a3.85,3.85,0,0,0-3.74-2.67H259A3.94,3.94,0,0,0,255.2,182l-21.71,47.47a3.43,3.43,0,0,0-.38,1.61,2.74,2.74,0,0,0,2.75,2.75,3,3,0,0,0,2.9-2.07l5.58-12.46H273.7l5.58,12.31a3.3,3.3,0,0,0,3,2.22,2.9,2.9,0,0,0,2.9-2.91,4,4,0,0,0-.38-1.52Zm-16.36,31.8L259,186.41l12.31,27.37Z" />
    <path class="cls-1"
        d="M335,179.92H315a3.05,3.05,0,0,0-3,3.05v47.78a3,3,0,1,0,6,0V212.63H333.4l15.06,19.57a3.5,3.5,0,0,0,2.83,1.61,3.16,3.16,0,0,0,3-3,3.3,3.3,0,0,0-1-2.22l-13.3-17.12c8.33-1.61,14.29-6.73,14.29-15.52v-.15a14.81,14.81,0,0,0-4.12-10.55C346.85,181.9,341.58,179.92,335,179.92Zm13.23,16.28c0,6.88-5.74,11-13.76,11H318V185.5h16.51c8.64,0,13.69,4,13.69,10.55Z" />
    <path class="cls-1"
        d="M401.13,179.92h-15.6a3,3,0,0,0-3,3.05v47.4a3.06,3.06,0,0,0,3,3.06h15.6c16.81,0,28.43-11.7,28.43-26.76v-.15C429.56,191.46,417.94,179.92,401.13,179.92Zm22.16,26.9c0,11.85-8.63,21-22.16,21H388.59V185.5h12.54c13.53,0,22.16,9.32,22.16,21.17Z" />
    <path class="cls-1"
        d="M476,203.77c-11.77-2.53-14.53-5.35-14.53-10.4v-.15c0-4.82,4.44-8.64,11.39-8.64a22.43,22.43,0,0,1,13.84,4.66,2.79,2.79,0,0,0,1.76.54,2.9,2.9,0,0,0,2.9-2.91,3.11,3.11,0,0,0-1.3-2.44,27.25,27.25,0,0,0-17-5.28c-10.17,0-17.58,6.19-17.58,14.6v.16c0,8.79,5.65,12.76,18,15.44,11.24,2.37,13.91,5.2,13.91,10.16v.16c0,5.27-4.74,9.09-11.92,9.09a24.35,24.35,0,0,1-16.9-6.34,2.68,2.68,0,0,0-1.83-.69,2.92,2.92,0,0,0-2.91,3,2.72,2.72,0,0,0,1.15,2.3,31.31,31.31,0,0,0,20.26,7.18c10.62,0,18.27-6,18.27-15.13v-.16C493.47,210.72,488,206.37,476,203.77Z" />
    <polygon class="cls-1"
        points="111.33 155.35 111.33 43.7 82.22 43.7 57.58 83.53 31.19 43.7 0 43.7 0 155.35 24.64 155.35 24.64 100.33 50.23 142.23 76.78 99.53 76.78 155.35 111.33 155.35" />
    <rect class="cls-1" x="125.72" y="43.7" width="34.55" height="111.65" />
    <path class="cls-1"
        d="M271,145.27l-14.4-20a36.44,36.44,0,0,1-21.44,6.88c-9.11,0-16.15-3-21.11-9.28-4.64-5.6-7.19-13.92-7.19-22.55,0-16.16,8.79-33.43,28.3-33.43a36.44,36.44,0,0,1,21.44,6.88l14.4-20a61,61,0,0,0-35.84-11.52h-3c-21.28.8-34.55,10.24-41.91,18.08a57.6,57.6,0,0,0-15.52,39.82,55.68,55.68,0,0,0,15.36,39c7.36,7.68,20.47,16.8,41.91,17.6h3.19A61,61,0,0,0,271,145.27Z" />
    <path class="cls-1"
        d="M362.6,109.92a35.19,35.19,0,0,0,11.84-26.55A37.94,37.94,0,0,0,362,55.54c-5.92-5.44-16.64-11.84-33.43-11.84h-48V155.35H315.1V120.8h8.16l18.23,34.55h37.75l-21.75-41.59A38.76,38.76,0,0,0,362.6,109.92ZM339.41,92.81c-1.92,2.24-4.64,3.36-8.64,3.36H315.1V68.33h13.44c4.79,0,13.91,3.2,13.91,15.52A13.77,13.77,0,0,1,339.41,92.81Z" />
    <path class="cls-1"
        d="M500,52.35V45.78a7.09,7.09,0,0,0-7.09-7.09H471.25c.72-.62,1.41-1.28,2.09-2C484.83,25.23,488,11.1,480.78,3.85,477,0,471.18-1,464.46,1A40.11,40.11,0,0,0,447.9,11.29a46,46,0,0,0-6.7,8.43,45.82,45.82,0,0,0-6.67-8.43A40.11,40.11,0,0,0,418,1C411.26-1,405.46,0,401.66,3.85s-4.84,9.6-2.89,16.32A40.11,40.11,0,0,0,409.1,36.73c.68.68,1.37,1.34,2.08,2H389.52a7.1,7.1,0,0,0-7.09,7.09v6.57a7.09,7.09,0,0,0,7.09,7.08h9.76a56.25,56.25,0,0,0-16.85,40.1c0,31.67,26.4,57.42,58.87,57.42,32.31,0,58.7-25.75,58.7-57.42a56.34,56.34,0,0,0-16.82-40.1h9.73A7.08,7.08,0,0,0,500,52.35ZM447.37,30.69a30.22,30.22,0,0,1,7.74-12.19,30.25,30.25,0,0,1,12.19-7.75,12.5,12.5,0,0,1,3.45-.54,4,4,0,0,1,2.83.85c2.19,2.19.34,10.67-7.45,18.46a30.18,30.18,0,0,1-12.19,7.75,12.76,12.76,0,0,1-3.44.54,4,4,0,0,1-2.83-.85C446.65,36,446.54,33.54,447.37,30.69ZM408.56,17.33c-.83-2.85-.72-5.26.3-6.27a3.94,3.94,0,0,1,2.8-.86c3.69,0,9.87,2.5,15.66,8.3a30.36,30.36,0,0,1,7.75,12.19c.83,2.85.71,5.26-.31,6.27s-3.41,1.13-6.27.31a30.25,30.25,0,0,1-12.19-7.75A30.22,30.22,0,0,1,408.56,17.33Zm59.21,87.29h-7.55a13.91,13.91,0,0,0-13.91,13.91v7.55a5.21,5.21,0,0,1-4.75,5.26,5.1,5.1,0,0,1-5.44-5.08v-7.73a13.91,13.91,0,0,0-13.91-13.91h-7.55a5.21,5.21,0,0,1-5.26-4.75,5.1,5.1,0,0,1,5.09-5.44h7.72a13.91,13.91,0,0,0,13.91-13.91V72.8a5,5,0,0,1,1.11-3.17,5.09,5.09,0,0,1,9.08,3.17v7.72a13.91,13.91,0,0,0,13.91,13.91H468A5.1,5.1,0,0,1,473,99.87,5.21,5.21,0,0,1,467.77,104.62Z" />
</svg>