<svg id="Layer_2" data-name="Layer 2" xmlns="http://www.w3.org/2000/svg" viewBox="0 0 900.48 156.94">
    <defs>
        <style>.cls-1{fill:#0688ff;}.cls-2{fill:#93eafe;}</style>
    </defs>
    <polygon class="cls-1"
        points="1.36 33.36 34.38 0 33.7 124.6 157.28 123.92 124.25 156.94 0 156.6 1.36 33.36" />
    <polygon class="cls-2"
        points="79.66 17.7 51.74 17.7 52.09 106.55 140.25 106.55 140.25 78.98 124.25 62.64 123.92 90.89 67.75 90.55 67.75 33.7 95.66 34.04 79.66 17.7" />
    <polygon class="cls-1"
        points="62.3 0.34 79.66 17.7 140.6 17.7 140.25 78.98 157.28 95.66 157.62 0.34 62.3 0.34" />
    <path
        d="M296.71,433.34c-3.13,1.56-10.28,3.39-19.42,3.39-22.68,0-36.68-13.3-36.68-33.12C240.61,383.34,256.2,369,279,369c9.07,0,15.48,1.84,18.26,3.3l-2.82,9.77a37.09,37.09,0,0,0-14.93-3c-15.39,0-25.76,8.93-25.76,23.93,0,13.35,9,23.42,25.54,23.42,5.63,0,11.53-1.1,15.22-2.78Z"
        transform="translate(-46.53 -348.83)" />
    <path d="M308.54,370.19H321v54.94h30v10.44H308.54Z" transform="translate(-46.53 -348.83)" />
    <path
        d="M422.7,402.28c0,21-14.83,34.45-35,34.45S354,422.53,354,403.59c0-20.23,14.44-34.56,34.66-34.56C409.53,369,422.7,383.25,422.7,402.28Zm-55.47,1c0,13,8.09,23.77,21.11,23.77s21.14-10.39,21.14-24.27c0-12.51-7.51-24-21.07-24S367.23,389.89,367.23,403.23Z"
        transform="translate(-46.53 -348.83)" />
    <path
        d="M446.83,370.19v36.47c0,13.5,6,20.3,15.38,20.3,10,0,15.85-6.74,15.85-20.3V370.19h12.48v36c0,21.22-11.6,30.52-28.89,30.52-16.13,0-27.3-8.58-27.3-30.58v-36Z"
        transform="translate(-46.53 -348.83)" />
    <path
        d="M505.74,371.07a152.92,152.92,0,0,1,21.53-1.46c13.81,0,23.17,2.79,29.89,8.27,6.7,5.31,10.78,12.84,10.78,23.27,0,11-4.16,19.57-10.73,25.46-7.3,6.37-19,9.65-33.12,9.65a153.6,153.6,0,0,1-18.35-.91Zm12.48,55.11a58,58,0,0,0,8,.36c18.32.12,28.45-9.37,28.45-24.8.08-14.29-9.59-22.52-26.61-22.52a50.33,50.33,0,0,0-9.87.82Z"
        transform="translate(-46.53 -348.83)" />
    <path
        d="M602.06,435.57V370.19h15l18.87,28.11a168.13,168.13,0,0,1,12.3,22.31l.25-.08a230.53,230.53,0,0,1-1.06-26.08V370.19H659.1v65.38H645.79L626.73,406.5a247,247,0,0,1-13.24-23.14l-.35.08c.49,8.81.59,17.23.59,27v25.09Z"
        transform="translate(-46.53 -348.83)" />
    <path
        d="M688.74,416.61l-6.26,19H669.36l23.13-65.38h16.25l23.81,65.38H718.83l-6.73-19Zm21.09-9.33-6-16.48c-1.41-4-2.56-7.89-3.64-11.42H700c-1,3.57-2,7.53-3.31,11.35l-5.78,16.55Z"
        transform="translate(-46.53 -348.83)" />
    <path d="M748.58,380.41h-21V370.19h54.67v10.22H761.06v55.16H748.58Z"
        transform="translate(-46.53 -348.83)" />
    <path d="M803.21,370.19v65.38H790.72V370.19Z" transform="translate(-46.53 -348.83)" />
    <path
        d="M835.07,435.57l-23.31-65.38h13.6l10.09,29.86c2.92,8.6,5.29,15.93,7.22,23.83h.2c2-7.61,4.7-15.44,7.64-23.51l11-30.18h13.2l-25.12,65.38Z"
        transform="translate(-46.53 -348.83)" />
    <path d="M922.83,406.83H895.16v18.64H926v10.1H882.68V370.19h41.79V380.3H895.16v16.42h27.67Z"
        transform="translate(-46.53 -348.83)" />
    <path
        d="M339.2,476a15.44,15.44,0,0,0,7.47,2c3.4,0,5.31-1.49,5.31-3.75,0-2-1.41-3.25-5.32-4.43-5.07-1.5-8.24-3.85-8.24-8.14,0-4.59,4.07-8,10.34-8a16.71,16.71,0,0,1,7.46,1.49l-1.34,4.17a14.08,14.08,0,0,0-6.22-1.43c-3.45,0-4.87,1.71-4.87,3.32,0,2.11,1.77,3.12,5.75,4.39,5.23,1.69,7.84,4,7.84,8.31s-3.28,8.37-11.14,8.37a17.94,17.94,0,0,1-8.29-2Z"
        transform="translate(-46.53 -348.83)" />
    <path
        d="M399.18,454.5a55.18,55.18,0,0,1,8.45-.61c4.33,0,7.14.72,9.08,2.29a6.9,6.9,0,0,1,2.48,5.54,7.3,7.3,0,0,1-5.26,6.87v.13c2,.78,3.24,2.71,4,5.2a70.4,70.4,0,0,0,2.35,7.85h-5.4a34.71,34.71,0,0,1-2-6.46c-.88-3.6-2.28-4.77-5.38-4.86h-3v11.32h-5.23Zm5.23,12.14H408c3.69,0,5.95-1.72,5.95-4.45,0-3.1-2.46-4.38-5.86-4.38a17.71,17.71,0,0,0-3.69.29Z"
        transform="translate(-46.53 -348.83)" />
    <path d="M466.36,454.13v27.64h-5.27V454.13Z" transform="translate(-46.53 -348.83)" />
    <path d="M555.38,454.13h5.28v23.22h12.69v4.42h-18Z" transform="translate(-46.53 -348.83)" />
    <path
        d="M620.52,473.75l-2.65,8h-5.54l9.77-27.64H629L639,481.77h-5.8l-2.85-8Zm8.91-3.94-2.52-7c-.6-1.68-1.08-3.33-1.54-4.83h-.08c-.43,1.51-.86,3.19-1.4,4.8l-2.44,7Z"
        transform="translate(-46.53 -348.83)" />
    <path
        d="M680,481.77V454.13h6.35l8,11.88a71.42,71.42,0,0,1,5.2,9.43l.11,0a96.44,96.44,0,0,1-.45-11V454.13h4.93v27.64h-5.62l-8.06-12.29a106.11,106.11,0,0,1-5.6-9.78l-.14,0c.2,3.72.24,7.28.24,11.43v10.61Z"
        transform="translate(-46.53 -348.83)" />
    <path
        d="M747.1,454.13h5.23v12.7h.12c.7-1,1.48-1.94,2.19-2.81l8.21-9.89h6.67L759,465.83l11.34,15.94H764L755.18,469l-2.85,3.13v9.65H747.1Z"
        transform="translate(-46.53 -348.83)" />
    <path
        d="M816.5,473.75l-2.65,8H808.3l9.78-27.64H825L835,481.77h-5.8l-2.84-8Zm8.91-3.94-2.52-7c-.6-1.68-1.08-3.33-1.54-4.83h-.08c-.44,1.51-.86,3.19-1.4,4.8l-2.44,7Z"
        transform="translate(-46.53 -348.83)" />
</svg>