<svg width="18" height="14" viewBox="0 0 18 14" fill="none" xmlns="http://www.w3.org/2000/svg">
<path d="M17.2215 1.66066C16.5882 1.94128 15.9079 2.1309 15.1927 2.2166C15.9306 1.77503 16.4827 1.08003 16.746 0.261302C16.0526 0.673137 15.2938 0.963023 14.5025 1.11836C13.9703 0.550172 13.2655 0.173569 12.4973 0.0470186C11.7292 -0.0795316 10.9408 0.0510517 10.2545 0.418495C9.56822 0.785938 9.02244 1.36968 8.70189 2.0791C8.38135 2.78852 8.30399 3.58391 8.48182 4.3418C7.07693 4.27126 5.70256 3.90611 4.44791 3.27003C3.19327 2.63395 2.08639 1.74117 1.19912 0.649633C0.895738 1.17297 0.721293 1.77973 0.721293 2.42594C0.720954 3.00767 0.864211 3.58049 1.13835 4.09358C1.41249 4.60667 1.80904 5.04416 2.29282 5.36724C1.73177 5.34938 1.1831 5.19778 0.692471 4.92506V4.97056C0.692415 5.78647 0.974642 6.57726 1.49127 7.20877C2.00789 7.84027 2.72709 8.27359 3.52683 8.43519C3.00636 8.57605 2.46069 8.5968 1.93103 8.49587C2.15667 9.19791 2.59619 9.81181 3.18807 10.2516C3.77995 10.6915 4.49455 10.9352 5.23184 10.9487C3.98026 11.9312 2.43456 12.4642 0.843404 12.4618C0.561547 12.4619 0.279929 12.4455 0 12.4125C1.61512 13.451 3.49523 14.0021 5.41538 14C11.9154 14 15.4687 8.61647 15.4687 3.9474C15.4687 3.79571 15.4649 3.6425 15.4581 3.49081C16.1493 2.99097 16.7459 2.37201 17.22 1.66293L17.2215 1.66066Z" fill="#888888"/>
</svg>
