<svg width="15" height="14" viewBox="0 0 15 14" fill="none" xmlns="http://www.w3.org/2000/svg">
<path fill-rule="evenodd" clip-rule="evenodd" d="M7.17706 0C3.21173 0 0 3.21173 0 7.17706C0 10.3529 2.05443 13.0353 4.90731 13.9863C5.26617 14.0491 5.40074 13.8338 5.40074 13.6454C5.40074 13.4749 5.39176 12.9097 5.39176 12.3087C3.58853 12.6406 3.12202 11.8691 2.97848 11.4653C2.89774 11.259 2.54786 10.622 2.24283 10.4516C1.99163 10.317 1.63278 9.98508 2.23386 9.97611C2.79905 9.96714 3.20276 10.4964 3.33733 10.7118C3.98327 11.7973 5.01497 11.4923 5.42765 11.3039C5.49045 10.8374 5.67885 10.5234 5.88519 10.3439C4.28829 10.1645 2.61963 9.54548 2.61963 6.80026C2.61963 6.01976 2.89774 5.37382 3.35527 4.87143C3.2835 4.692 3.03231 3.95635 3.42704 2.96951C3.42704 2.96951 4.02812 2.78111 5.40074 3.70516C5.9749 3.54367 6.58495 3.46293 7.195 3.46293C7.80505 3.46293 8.4151 3.54367 8.98926 3.70516C10.3619 2.77214 10.963 2.96951 10.963 2.96951C11.3577 3.95635 11.1065 4.692 11.0347 4.87143C11.4923 5.37382 11.7704 6.01078 11.7704 6.80026C11.7704 9.55446 10.0927 10.1645 8.49584 10.3439C8.75601 10.5682 8.98029 10.9988 8.98029 11.6717C8.98029 12.6316 8.97132 13.4032 8.97132 13.6454C8.97132 13.8338 9.10589 14.0581 9.46474 13.9863C10.8895 13.5053 12.1275 12.5896 13.0046 11.3681C13.8817 10.1466 14.3537 8.68082 14.3541 7.17706C14.3541 3.21173 11.1424 0 7.17706 0Z" fill="#888888"/>
</svg>
