<svg width="400" height="400" viewBox="0 0 400 400" fill="none" xmlns="http://www.w3.org/2000/svg">
    <rect width="400" height="400" rx="120" fill="#FF0000" />
    <path
        d="M100.977 259L31 199.948L100.977 141L117.174 157.426L65.6771 199.74L117.174 242.574L100.977 259Z"
        fill="white" />
    <path
        d="M200.943 252.554C195.959 254.564 190.803 256.054 185.473 257.025C180.143 257.995 174.572 258.48 168.757 258.48C160.382 258.48 152.872 257.337 146.228 255.049C139.583 252.762 133.942 249.366 129.304 244.861C124.667 240.356 121.102 234.776 118.611 228.122C116.188 221.469 114.977 213.775 114.977 205.042C114.977 196.586 116.292 188.928 118.922 182.066C121.621 175.204 125.394 169.348 130.239 164.496C135.084 159.644 140.898 155.902 147.681 153.268C154.534 150.634 162.147 149.317 170.522 149.317C177.375 149.317 183.12 149.698 187.757 150.461C192.464 151.154 196.686 152.055 200.424 153.164V177.804C196.132 175.655 191.46 173.991 186.407 172.813C181.424 171.635 176.683 171.046 172.184 171.046C167.477 171.046 163.255 171.843 159.517 173.437C155.779 175.031 152.63 177.249 150.069 180.091C147.508 182.932 145.536 186.398 144.151 190.487C142.836 194.507 142.179 198.943 142.179 203.795C142.179 208.854 142.905 213.394 144.359 217.414C145.812 221.434 147.854 224.865 150.484 227.707C153.184 230.479 156.402 232.628 160.14 234.152C163.878 235.608 168.031 236.336 172.599 236.336C174.814 236.336 177.133 236.197 179.555 235.92C182.047 235.573 184.504 235.123 186.927 234.568C189.418 233.944 191.841 233.251 194.194 232.489C196.617 231.727 198.866 230.895 200.943 229.994V252.554Z"
        fill="white" />
    <path
        d="M240.379 149.941C243.009 149.941 245.466 150.426 247.751 151.396C250.035 152.367 252.007 153.718 253.669 155.451C255.33 157.115 256.645 159.09 257.614 161.377C258.583 163.664 259.067 166.09 259.067 168.655C259.067 171.288 258.583 173.749 257.614 176.036C256.645 178.323 255.33 180.299 253.669 181.962C252.007 183.626 250.035 184.942 247.751 185.913C245.466 186.883 243.009 187.368 240.379 187.368C237.749 187.368 235.292 186.883 233.008 185.913C230.793 184.942 228.82 183.626 227.09 181.962C225.428 180.299 224.113 178.323 223.144 176.036C222.175 173.749 221.691 171.288 221.691 168.655C221.691 166.09 222.175 163.664 223.144 161.377C224.113 159.09 225.428 157.115 227.09 155.451C228.82 153.718 230.793 152.367 233.008 151.396C235.292 150.426 237.749 149.941 240.379 149.941ZM240.379 221.573C243.009 221.573 245.466 222.058 247.751 223.028C250.035 223.999 252.007 225.315 253.669 226.979C255.33 228.642 256.645 230.618 257.614 232.905C258.583 235.192 259.067 237.618 259.067 240.182C259.067 242.816 258.583 245.277 257.614 247.564C256.645 249.851 255.33 251.861 253.669 253.594C252.007 255.257 250.035 256.574 247.751 257.544C245.466 258.515 243.009 259 240.379 259C237.749 259 235.292 258.515 233.008 257.544C230.793 256.574 228.82 255.257 227.09 253.594C225.428 251.861 224.113 249.851 223.144 247.564C222.175 245.277 221.691 242.816 221.691 240.182C221.691 237.618 222.175 235.192 223.144 232.905C224.113 230.618 225.428 228.642 227.09 226.979C228.82 225.315 230.793 223.999 233.008 223.028C235.292 222.058 237.749 221.573 240.379 221.573Z"
        fill="white" />
    <path
        d="M299.023 141L369 199.948L299.023 259L282.93 242.574L334.323 200.156L282.93 157.426L299.023 141Z"
        fill="white" />
</svg>