 <svg width="310" height="128" viewBox="0 0 155 64" fill="none" xmlns="http://www.w3.org/2000/svg">
            <path
                d="M122.446 24.5375C123.335 24.5375 124.055 23.8577 124.055 23.0191C124.055 22.1805 123.335 21.5007 122.446 21.5007C121.557 21.5007 120.837 22.1805 120.837 23.0191C120.837 23.8577 121.557 24.5375 122.446 24.5375Z"
                fill="#7D00D4"
            />
            <path
                d="M118.107 28.7123C118.996 28.7123 119.716 28.0325 119.716 27.1939C119.716 26.3553 118.996 25.6755 118.107 25.6755C117.218 25.6755 116.498 26.3553 116.498 27.1939C116.498 28.0325 117.218 28.7123 118.107 28.7123Z"
                fill="#7D00D4"
            />
            <path
                d="M118.107 24.5375C118.996 24.5375 119.716 23.8577 119.716 23.0191C119.716 22.1805 118.996 21.5007 118.107 21.5007C117.218 21.5007 116.498 22.1805 116.498 23.0191C116.498 23.8577 117.218 24.5375 118.107 24.5375Z"
                fill="#7D00D4"
            />
            <path
                d="M132.694 24.59C133.583 24.59 134.303 23.9102 134.303 23.0716C134.303 22.233 133.583 21.5532 132.694 21.5532C131.805 21.5532 131.085 22.233 131.085 23.0716C131.085 23.9102 131.805 24.59 132.694 24.59Z"
                fill="#7D00D4"
            />
            <path
                d="M137.033 28.7648C137.921 28.7648 138.642 28.085 138.642 27.2464C138.642 26.4078 137.921 25.728 137.033 25.728C136.144 25.728 135.423 26.4078 135.423 27.2464C135.423 28.085 136.144 28.7648 137.033 28.7648Z"
                fill="#7D00D4"
            />
            <path
                d="M137.033 24.59C137.921 24.59 138.642 23.9102 138.642 23.0716C138.642 22.233 137.921 21.5532 137.033 21.5532C136.144 21.5532 135.423 22.233 135.423 23.0716C135.423 23.9102 136.144 24.59 137.033 24.59Z"
                fill="#7D00D4"
            />
            <path
                d="M122.542 43.8242C123.431 43.8242 124.152 43.1443 124.152 42.3058C124.152 41.4672 123.431 40.7874 122.542 40.7874C121.654 40.7874 120.933 41.4672 120.933 42.3058C120.933 43.1443 121.654 43.8242 122.542 43.8242Z"
                fill="#7D00D4"
            />
            <path
                d="M118.204 39.6494C119.092 39.6494 119.813 38.9695 119.813 38.131C119.813 37.2924 119.092 36.6125 118.204 36.6125C117.315 36.6125 116.594 37.2924 116.594 38.131C116.594 38.9695 117.315 39.6494 118.204 39.6494Z"
                fill="#7D00D4"
            />
            <path
                d="M118.204 43.8242C119.092 43.8242 119.813 43.1443 119.813 42.3058C119.813 41.4672 119.092 40.7874 118.204 40.7874C117.315 40.7874 116.594 41.4672 116.594 42.3058C116.594 43.1443 117.315 43.8242 118.204 43.8242Z"
                fill="#7D00D4"
            />
            <path
                d="M132.79 43.7717C133.679 43.7717 134.4 43.0919 134.4 42.2533C134.4 41.4147 133.679 40.7349 132.79 40.7349C131.902 40.7349 131.181 41.4147 131.181 42.2533C131.181 43.0919 131.902 43.7717 132.79 43.7717Z"
                fill="#7D00D4"
            />
            <path
                d="M137.129 39.5969C138.018 39.5969 138.739 38.9171 138.739 38.0785C138.739 37.2399 138.018 36.5601 137.129 36.5601C136.24 36.5601 135.52 37.2399 135.52 38.0785C135.52 38.9171 136.24 39.5969 137.129 39.5969Z"
                fill="#7D00D4"
            />
            <path
                d="M137.129 43.7717C138.018 43.7717 138.739 43.0919 138.739 42.2533C138.739 41.4147 138.018 40.7349 137.129 40.7349C136.24 40.7349 135.52 41.4147 135.52 42.2533C135.52 43.0919 136.24 43.7717 137.129 43.7717Z"
                fill="#7D00D4"
            />
            <path
                d="M38.5073 21.6811V51.9246H30.6442V41.0334C29.9973 41.9943 29.0896 42.7584 27.9277 43.329C26.7625 43.8996 25.4912 44.185 24.1072 44.185C22.2211 44.185 20.5506 43.7193 19.0926 42.7912C17.6345 41.8631 16.5016 40.5349 15.6905 38.8066C14.8826 37.0816 14.4771 35.0778 14.4771 32.7953C14.4771 30.5161 14.889 28.4893 15.713 26.7184C16.537 24.9475 17.6796 23.5767 19.1376 22.5994C20.5957 21.6254 22.2532 21.1367 24.1072 21.1367C25.5491 21.1367 26.8688 21.4384 28.0596 22.0353C29.2538 22.6354 30.1582 23.4619 30.7762 24.5113V21.6746H38.5073V21.6811ZM29.6722 36.7799C30.4092 35.8354 30.7762 34.4777 30.7762 32.7068C30.7762 30.9063 30.406 29.5257 29.6722 28.5648C28.9351 27.6039 27.8762 27.1251 26.4922 27.1251C25.1661 27.1251 24.1297 27.6203 23.3765 28.6107C22.6234 29.6011 22.25 30.9949 22.25 32.7953C22.25 34.5367 22.617 35.8715 23.354 36.7996C24.0911 37.7309 25.1339 38.1933 26.489 38.1933C27.8762 38.1966 28.9351 37.7244 29.6722 36.7799Z"
                fill="#7D00D4"
            />
            <path
                d="M80.3366 21.6812V43.8243H72.6956V40.853C72.0164 41.932 71.1571 42.7584 70.111 43.3291C69.0649 43.8997 67.8644 44.185 66.5094 44.185C63.7124 44.185 61.6364 43.3979 60.2813 41.8205C58.9263 40.2463 58.2504 37.8523 58.2504 34.6417V21.6812H66.1135V34.8221C66.1135 36.9832 67.0243 38.0622 68.8525 38.0622C69.9114 38.0622 70.7805 37.6719 71.4596 36.8914C72.1355 36.1109 72.4767 35.091 72.4767 33.8317V21.6812H80.3366Z"
                fill="#7D00D4"
            />
            <path
                d="M104.319 22.5371C105.76 23.4685 106.887 24.7967 107.698 26.5217C108.506 28.2467 108.912 30.2505 108.912 32.5297C108.912 34.809 108.506 36.8357 107.698 38.6066C106.887 40.3775 105.754 41.7484 104.296 42.7256C102.838 43.6996 101.18 44.1883 99.3265 44.1883C97.8845 44.1883 96.5649 43.8866 95.374 43.2897C94.1799 42.6896 93.2754 41.8664 92.6575 40.8137V43.8275H84.9263V12.0952H92.7894V24.2916C93.4364 23.3307 94.3408 22.5666 95.5059 21.996C96.6679 21.4254 97.9424 21.14 99.3265 21.14C101.213 21.14 102.877 21.6057 104.319 22.5371ZM100.035 36.734C100.772 35.76 101.139 34.3564 101.139 32.5264C101.139 30.7883 100.778 29.4503 100.057 28.5222C99.3361 27.5941 98.2965 27.1284 96.9447 27.1284C95.5607 27.1284 94.4985 27.6006 93.7647 28.5451C93.0276 29.4896 92.6607 30.8473 92.6607 32.6183C92.6607 34.4187 93.0276 35.7994 93.7647 36.7602C94.5017 37.7211 95.5478 38.1999 96.8996 38.1999C98.2546 38.1967 99.3007 37.7113 100.035 36.734Z"
                fill="#7D00D4"
            />
            <path
                d="M42.2313 12.0754H50.5772V35.081C50.5772 35.081 50.5321 37.1111 52.5244 37.1602C54.5168 37.2094 55.3536 37.1602 55.3536 37.1602V43.5028C54.0114 43.7258 52.6339 43.8242 51.2756 43.8242C47.2394 43.8242 42.5885 41.8401 42.2345 37.2553C42.2313 33.238 42.2313 12.0754 42.2313 12.0754Z"
                fill="#7D00D4"
            />
        </svg>